<?xml version="1.0" encoding="UTF-8" standalone="no"?>
<!-- Generator: Adobe Illustrator 19.0.0, SVG Export Plug-In . SVG Version: 6.00 Build 0)  -->

<svg
   xmlns:dc="http://purl.org/dc/elements/1.1/"
   xmlns:cc="http://creativecommons.org/ns#"
   xmlns:rdf="http://www.w3.org/1999/02/22-rdf-syntax-ns#"
   xmlns:svg="http://www.w3.org/2000/svg"
   xmlns="http://www.w3.org/2000/svg"
   xmlns:sodipodi="http://sodipodi.sourceforge.net/DTD/sodipodi-0.dtd"
   xmlns:inkscape="http://www.inkscape.org/namespaces/inkscape"
   version="1.1"
   id="Layer_1"
   x="0px"
   y="0px"
   viewBox="0 0 95.999798 104.00008"
   xml:space="preserve"
   sodipodi:docname="files.svg"
   width="95.999794"
   height="104.00008"
   inkscape:version="0.92.4 (5da689c313, 2019-01-14)"><metadata
   id="metadata57"><rdf:RDF><cc:Work
       rdf:about=""><dc:format>image/svg+xml</dc:format><dc:type
         rdf:resource="http://purl.org/dc/dcmitype/StillImage" /><dc:title></dc:title></cc:Work></rdf:RDF></metadata><defs
   id="defs55" /><sodipodi:namedview
   pagecolor="#ffffff"
   bordercolor="#666666"
   borderopacity="1"
   objecttolerance="10"
   gridtolerance="10"
   guidetolerance="10"
   inkscape:pageopacity="0"
   inkscape:pageshadow="2"
   inkscape:window-width="1536"
   inkscape:window-height="841"
   id="namedview53"
   showgrid="false"
   fit-margin-top="0"
   fit-margin-left="0"
   fit-margin-right="0"
   fit-margin-bottom="0"
   inkscape:zoom="2.6524126"
   inkscape:cx="-36.013958"
   inkscape:cy="62.08447"
   inkscape:window-x="-8"
   inkscape:window-y="-8"
   inkscape:window-maximized="1"
   inkscape:current-layer="Layer_1" />


<g
   id="g874"
   transform="matrix(0.2621648,0,0,0.20592887,-18.069447,0.24857814)"
   inkscape:export-xdpi="96"
   inkscape:export-ydpi="96"><path
     id="path2"
     d="m 433.898,104.136 h -86.78 c -9.546,0 -17.356,-7.81 -17.356,-17.356 V 0 Z"
     style="fill:#f5f5f5;fill-opacity:1;stroke:#dcdcdc;stroke-opacity:1"
     inkscape:connector-curvature="0" /><path
     id="path4"
     d="m 433.898,104.136 h -86.78 c -9.546,0 -17.356,-7.81 -17.356,-17.356 V 0 H 86.78 C 77.234,0 69.424,7.81 69.424,17.356 v 468.61 c 0,9.546 7.81,17.356 17.356,17.356 h 329.763 c 9.546,0 17.356,-7.81 17.356,-17.356 v -381.83 z"
     style="fill:#ffffff;fill-opacity:1;stroke:#dcdcdc;stroke-opacity:1"
     inkscape:connector-curvature="0" /><g
     style="fill:#dcdcdc;fill-opacity:1"
     id="g20">
	<path
   inkscape:connector-curvature="0"
   id="path6"
   d="M 277.695,112.814 H 121.492 c -5.207,0 -8.678,-3.471 -8.678,-8.678 0,-5.207 3.471,-8.678 8.678,-8.678 h 156.203 c 5.207,0 8.678,3.471 8.678,8.678 0,5.206 -3.471,8.678 -8.678,8.678"
   style="fill:#dcdcdc;fill-opacity:1" />
	<path
   inkscape:connector-curvature="0"
   id="path8"
   d="M 381.831,164.881 H 121.492 c -5.207,0 -8.678,-3.471 -8.678,-8.678 0,-5.207 3.471,-8.678 8.678,-8.678 h 260.339 c 5.207,0 8.678,3.471 8.678,8.678 -0.001,5.207 -3.472,8.678 -8.678,8.678"
   style="fill:#dcdcdc;fill-opacity:1" />
	<path
   inkscape:connector-curvature="0"
   id="path10"
   d="M 381.831,216.949 H 121.492 c -5.207,0 -8.678,-3.471 -8.678,-8.678 0,-5.207 3.471,-8.678 8.678,-8.678 h 260.339 c 5.207,0 8.678,3.471 8.678,8.678 -0.001,5.207 -3.472,8.678 -8.678,8.678"
   style="fill:#dcdcdc;fill-opacity:1" />
	<path
   inkscape:connector-curvature="0"
   id="path12"
   d="M 381.831,269.017 H 121.492 c -5.207,0 -8.678,-3.471 -8.678,-8.678 0,-5.207 3.471,-8.678 8.678,-8.678 h 260.339 c 5.207,0 8.678,3.471 8.678,8.678 0,5.207 -3.472,8.678 -8.678,8.678"
   style="fill:#dcdcdc;fill-opacity:1" />
	<path
   inkscape:connector-curvature="0"
   id="path14"
   d="M 381.831,321.085 H 121.492 c -5.207,0 -8.678,-3.471 -8.678,-8.678 0,-5.207 3.471,-8.678 8.678,-8.678 h 260.339 c 5.207,0 8.678,3.471 8.678,8.678 -0.001,5.207 -3.472,8.678 -8.678,8.678"
   style="fill:#dcdcdc;fill-opacity:1" />
	<path
   inkscape:connector-curvature="0"
   id="path16"
   d="M 381.831,373.153 H 121.492 c -5.207,0 -8.678,-3.471 -8.678,-8.678 0,-5.207 3.471,-8.678 8.678,-8.678 h 260.339 c 5.207,0 8.678,3.471 8.678,8.678 0,5.207 -3.472,8.678 -8.678,8.678"
   style="fill:#dcdcdc;fill-opacity:1" />
	<path
   inkscape:connector-curvature="0"
   id="path18"
   d="M 381.831,425.22 H 121.492 c -5.207,0 -8.678,-3.471 -8.678,-8.678 0,-5.207 3.471,-8.678 8.678,-8.678 h 260.339 c 5.207,0 8.678,3.471 8.678,8.678 -0.001,5.207 -3.472,8.678 -8.678,8.678"
   style="fill:#dcdcdc;fill-opacity:1" />
</g></g>
<g
   id="g22"
   transform="translate(-44.025495,-251.26411)">
</g>
<g
   id="g24"
   transform="translate(-44.025495,-251.26411)">
</g>
<g
   id="g26"
   transform="translate(-44.025495,-251.26411)">
</g>
<g
   id="g28"
   transform="translate(-44.025495,-251.26411)">
</g>
<g
   id="g30"
   transform="translate(-44.025495,-251.26411)">
</g>
<g
   id="g32"
   transform="translate(-44.025495,-251.26411)">
</g>
<g
   id="g34"
   transform="translate(-44.025495,-251.26411)">
</g>
<g
   id="g36"
   transform="translate(-44.025495,-251.26411)">
</g>
<g
   id="g38"
   transform="translate(-44.025495,-251.26411)">
</g>
<g
   id="g40"
   transform="translate(-44.025495,-251.26411)">
</g>
<g
   id="g42"
   transform="translate(-44.025495,-251.26411)">
</g>
<g
   id="g44"
   transform="translate(-44.025495,-251.26411)">
</g>
<g
   id="g46"
   transform="translate(-44.025495,-251.26411)">
</g>
<g
   id="g48"
   transform="translate(-44.025495,-251.26411)">
</g>
<g
   id="g50"
   transform="translate(-44.025495,-251.26411)">
</g>
</svg>